<svg xmlns="http://www.w3.org/2000/svg" viewBox="0 0 750 500"><g id="freepik--Window--inject-130"><path d="M524.45,299H225.57a141.78,141.78,0,0,1,13.51-31.24q.69-1.18,1.41-2.37c1.43-2.35,2.94-4.67,4.51-7q1.58-2.28,3.24-4.51c.55-.74,1.11-1.48,1.68-2.21s1.12-1.42,1.68-2.13l.05-.06q1.72-2.13,3.52-4.2l.18-.2c.58-.66,1.16-1.32,1.76-2s1.26-1.38,1.9-2.06,1.29-1.37,1.95-2l2-2L263,237l2-1.9c.68-.65,1.37-1.29,2.07-1.93s1.41-1.27,2.12-1.9q2.31-2,4.71-4c.6-.48,1.2-1,1.81-1.44a.67.67,0,0,1,.14-.11q1.11-.87,2.22-1.71,3.46-2.61,7.09-5l2.44-1.6c.82-.53,1.65-1.05,2.48-1.56s1.67-1,2.52-1.52,1.73-1,2.6-1.5q2.55-1.44,5.18-2.79,1.32-.69,2.67-1.35c.89-.44,1.79-.87,2.7-1.3l.06,0c.89-.42,1.78-.82,2.68-1.23l2.68-1.17.26-.1,2.49-1,.3-.12q2.76-1.11,5.59-2.13l.52-.18c.78-.28,1.57-.55,2.35-.81,1.37-.47,2.74-.92,4.12-1.35,1.06-.32,2.12-.64,3.18-.94l.1,0,2.73-.75c.33-.1.67-.18,1-.27q1.43-.37,2.85-.72c1.83-.44,3.65-.85,5.48-1.22l1.72-.35.32-.06c1-.19,1.92-.36,2.88-.53.66-.12,1.33-.23,2-.33l.63-.1,1.11-.17.43-.06c.9-.14,1.8-.26,2.7-.38,1.15-.15,2.29-.29,3.44-.41l.35,0,2.84-.28.62-.05,3.05-.23,3.33-.19h.15c1.6-.07,3.2-.11,4.8-.13l1.34,0h.63a162.71,162.71,0,0,1,77.72,19.42c2.53,1.37,5,2.81,7.48,4.31q2.43,1.49,4.81,3.07c.81.54,1.61,1.09,2.41,1.64a151.13,151.13,0,0,1,23.94,20.53q3,3.14,5.75,6.45,1.88,2.2,3.63,4.49c.59.77,1.17,1.53,1.75,2.31s1.14,1.55,1.7,2.34q1.71,2.36,3.28,4.8c.53.81,1.06,1.63,1.57,2.45s1,1.66,1.53,2.49,1,1.62,1.43,2.44l.12.22c.43.75.85,1.51,1.27,2.27s.74,1.38,1.1,2.07c.29.52.56,1.05.83,1.59s.51,1,.76,1.52c0,.07.07.15.11.22q2.34,4.74,4.34,9.7Q522.55,292.6,524.45,299Z" style="fill:#BA68C8"></path><path d="M524.45,299H225.57a141.78,141.78,0,0,1,13.51-31.24q.69-1.18,1.41-2.37c1.43-2.35,2.94-4.67,4.51-7q1.58-2.28,3.24-4.51c.55-.74,1.11-1.48,1.68-2.21s1.12-1.42,1.68-2.13l.05-.06q1.72-2.13,3.52-4.2l.18-.2c.58-.66,1.16-1.32,1.76-2s1.26-1.38,1.9-2.06,1.29-1.37,1.95-2l2-2L263,237l2-1.9c.68-.65,1.37-1.29,2.07-1.93s1.41-1.27,2.12-1.9q2.31-2,4.71-4c.6-.48,1.2-1,1.81-1.44a.67.67,0,0,1,.14-.11q1.11-.87,2.22-1.71,3.46-2.61,7.09-5l2.44-1.6c.82-.53,1.65-1.05,2.48-1.56s1.67-1,2.52-1.52,1.73-1,2.6-1.5q2.55-1.44,5.18-2.79,1.32-.69,2.67-1.35c.89-.44,1.79-.87,2.7-1.3l.06,0c.89-.42,1.78-.82,2.68-1.23l2.68-1.17.26-.1,2.49-1,.3-.12q2.76-1.11,5.59-2.13l.52-.18c.78-.28,1.57-.55,2.35-.81,1.37-.47,2.74-.92,4.12-1.35,1.06-.32,2.12-.64,3.18-.94l.1,0,2.73-.75c.33-.1.67-.18,1-.27q1.43-.37,2.85-.72c1.83-.44,3.65-.85,5.48-1.22l1.72-.35.32-.06c1-.19,1.92-.36,2.88-.53.66-.12,1.33-.23,2-.33l.63-.1,1.11-.17.43-.06c.9-.14,1.8-.26,2.7-.38,1.15-.15,2.29-.29,3.44-.41l.35,0,2.84-.28.62-.05,3.05-.23,3.33-.19h.15c1.6-.07,3.2-.11,4.8-.13l1.34,0h.63a162.71,162.71,0,0,1,77.72,19.42c2.53,1.37,5,2.81,7.48,4.31q2.43,1.49,4.81,3.07c.81.54,1.61,1.09,2.41,1.64a151.13,151.13,0,0,1,23.94,20.53q3,3.14,5.75,6.45,1.88,2.2,3.63,4.49c.59.77,1.17,1.53,1.75,2.31s1.14,1.55,1.7,2.34q1.71,2.36,3.28,4.8c.53.81,1.06,1.63,1.57,2.45s1,1.66,1.53,2.49,1,1.62,1.43,2.44l.12.22c.43.75.85,1.51,1.27,2.27s.74,1.38,1.1,2.07c.29.52.56,1.05.83,1.59s.51,1,.76,1.52c0,.07.07.15.11.22q2.34,4.74,4.34,9.7Q522.55,292.6,524.45,299Z" style="opacity:0.1"></path><g style="opacity:0.1"><path d="M374.47,191.93a115.58,115.58,0,0,1-11.88,25.94c-22.31,34.59-68.9,51.92-87.42,56.83-21.19,5.61-35.11,15.54-43.9,24.31h-5.7c-.41,1.36-.8,2.72-1.16,4.09.35-1.37.73-2.74,1.14-4.09a141.64,141.64,0,0,1,13.53-31.24q.69-1.18,1.41-2.37c1.42-2.36,2.93-4.68,4.51-7,1-1.52,2.12-3,3.24-4.51.55-.74,1.11-1.48,1.68-2.21s1.12-1.42,1.68-2.13l.05-.06c1.14-1.42,2.32-2.82,3.52-4.2l.18-.2c.58-.66,1.16-1.32,1.76-2s1.26-1.38,1.9-2.06,1.29-1.37,1.95-2l2-2L263,237l2-1.9c.68-.65,1.37-1.29,2.07-1.93s1.41-1.27,2.12-1.9q2.31-2,4.71-4c.6-.48,1.2-1,1.81-1.44a.67.67,0,0,1,.14-.11q1.11-.87,2.22-1.71,3.45-2.62,7.09-5l2.44-1.6c.82-.53,1.65-1.05,2.48-1.56s1.67-1,2.52-1.52,1.73-1,2.6-1.5q2.55-1.46,5.18-2.79,1.32-.69,2.67-1.35c.89-.44,1.79-.87,2.7-1.3l.06,0c.89-.42,1.78-.82,2.68-1.23l2.68-1.17.26-.1,2.49-1,.3-.12q2.76-1.11,5.59-2.13l.52-.18c.78-.28,1.57-.55,2.35-.81,1.37-.47,2.74-.92,4.12-1.35,1.06-.32,2.12-.64,3.18-.94l.1,0,2.73-.75c.33-.1.67-.18,1-.27q1.43-.37,2.85-.72c1.83-.44,3.65-.85,5.48-1.22l1.72-.35.32-.06c1-.19,1.92-.36,2.88-.53.66-.12,1.33-.23,2-.33l.63-.1,1.11-.17.43-.06c.9-.14,1.8-.26,2.7-.38,1.15-.15,2.29-.29,3.44-.41l.35,0,2.84-.28.62-.05,3.05-.23,3.33-.19h.15Q371.09,191.94,374.47,191.93Z"></path><path d="M515.66,276.57c-4.49,4.57-17.42,14.19-51.44,22.44H306.46c19.56-4.9,42-11.3,67.2-22.52a186.6,186.6,0,0,0,44.88-28.12c4.52-3.83,8.55-7.62,12.13-11.23,11.77-11.92,18.59-22,21.5-25.77h0c2.53,1.37,5,2.81,7.48,4.31q2.43,1.5,4.81,3.07c.81.54,1.61,1.09,2.41,1.64a152,152,0,0,1,23.94,20.53q3,3.14,5.75,6.45,1.85,2.2,3.63,4.49c.59.77,1.17,1.53,1.75,2.31s1.14,1.55,1.7,2.34c1.13,1.58,2.22,3.17,3.28,4.8.53.81,1.06,1.63,1.57,2.45s1,1.66,1.53,2.49,1,1.62,1.43,2.44l.12.22c.43.75.85,1.51,1.27,2.27s.74,1.38,1.1,2.07c.29.52.56,1.05.83,1.59s.51,1,.76,1.52C515.59,276.42,515.62,276.5,515.66,276.57Z"></path></g><g style="opacity:0.1"><path d="M291.15,248.29c2.52,6.05-3,13.75-12.33,17.21s-18.93,1.35-21.45-4.7,3-13.75,12.33-17.21S288.63,242.23,291.15,248.29Z"></path><path d="M267.91,285c1.42,3.41-2,7.86-7.56,9.93s-11.29,1-12.71-2.42,2-7.86,7.57-9.93S266.49,281.54,267.91,285Z"></path><path d="M439,242.08c1.79,4.31-1.26,9.47-6.82,11.52s-11.51.21-13.3-4.11,1.26-9.47,6.82-11.52S437.22,237.76,439,242.08Z"></path><path d="M497.45,273.1c.68,1.65-.74,3.73-3.19,4.63s-5,.31-5.68-1.34.74-3.73,3.19-4.63S496.76,271.45,497.45,273.1Z"></path><path d="M436.5,219.7c1.1,2.64-.56,5.72-3.71,6.89s-6.59,0-7.69-2.67.56-5.73,3.71-6.89S435.4,217.06,436.5,219.7Z"></path></g><path d="M537.8,302.51H212.2a3.5,3.5,0,0,1-3.5-3.5V69a3.49,3.49,0,0,1,3.5-3.5H537.8a3.49,3.49,0,0,1,3.5,3.5V299A3.5,3.5,0,0,1,537.8,302.51Zm-322.1-7H534.3v-223H215.7Z" style="fill:#37474f"></path><path d="M212.2,302.51a3.28,3.28,0,0,1-1.07-.17L98.29,266.19a3.49,3.49,0,0,1-2.43-3.33V105.19a3.49,3.49,0,0,1,2.43-3.33L211.13,65.7A3.51,3.51,0,0,1,215.7,69V299a3.5,3.5,0,0,1-3.5,3.5ZM102.86,260.3,208.7,294.21V73.83L102.86,107.74Z" style="fill:#37474f"></path><path d="M537.8,302.51a3.5,3.5,0,0,1-3.5-3.5V69a3.51,3.51,0,0,1,4.57-3.34l112.84,36.16a3.49,3.49,0,0,1,2.43,3.33V262.86a3.49,3.49,0,0,1-2.43,3.33L538.87,302.34A3.28,3.28,0,0,1,537.8,302.51Zm3.5-228.68V294.21L647.14,260.3V107.74Zm109.34,189h0Z" style="fill:#37474f"></path></g><g id="freepik--Floor--inject-130"><path d="M16.16,466.59c229.9-.61,487.78-.62,717.68,0-229.9.62-487.78.61-717.68,0Z" style="fill:#263238"></path></g><g id="freepik--devices-2--inject-130"><rect x="221.02" y="21.45" width="97.33" height="56.15" style="fill:#37474f"></rect><rect x="244.19" y="25.76" width="69.84" height="47.53" style="fill:#263238"></rect><rect x="250.03" y="32.6" width="3.23" height="1.12" style="fill:#455a64"></rect><rect x="255.61" y="32.6" width="21.92" height="1.12" style="fill:#455a64"></rect><rect x="279.52" y="32.6" width="6.13" height="1.12" style="fill:#455a64"></rect><rect x="293.54" y="47.56" width="6.13" height="1.12" style="fill:#455a64"></rect><rect x="286.98" y="32.6" width="10.6" height="1.12" style="fill:#455a64"></rect><rect x="253.26" y="35.59" width="3.23" height="1.12" style="fill:#455a64"></rect><rect x="258.76" y="35.59" width="14.23" height="1.12" style="fill:#455a64"></rect><rect x="277.86" y="47.56" width="14.23" height="1.12" style="fill:#455a64"></rect><rect x="255.61" y="44.57" width="13.14" height="1.12" style="fill:#455a64"></rect><rect x="258.76" y="38.58" width="6.21" height="1.12" style="fill:#455a64"></rect><rect x="283.62" y="41.57" width="6.21" height="1.12" style="fill:#455a64"></rect><rect x="266.78" y="38.58" width="20.97" height="1.12" style="fill:#455a64"></rect><rect x="255.61" y="47.56" width="20.97" height="1.12" style="fill:#455a64"></rect><rect x="286.3" y="35.59" width="16.82" height="1.12" style="fill:#455a64"></rect><rect x="274.51" y="35.59" width="10.45" height="1.12" style="fill:#455a64"></rect><rect x="288.97" y="38.58" width="10.45" height="1.12" style="fill:#455a64"></rect><rect x="253.26" y="38.58" width="3.23" height="1.12" style="fill:#455a64"></rect><rect x="250.03" y="41.57" width="3.23" height="1.12" style="fill:#455a64"></rect><rect x="255.61" y="41.57" width="9.01" height="1.12" style="fill:#455a64"></rect><rect x="258.76" y="50.55" width="9.01" height="1.12" style="fill:#455a64"></rect><rect x="279.23" y="53.54" width="14.5" height="1.12" style="fill:#455a64"></rect><rect x="269.31" y="50.55" width="14.1" height="1.12" style="fill:#455a64"></rect><rect x="265.94" y="53.54" width="11.62" height="1.12" style="fill:#455a64"></rect><rect x="285.07" y="50.55" width="18.05" height="1.12" style="fill:#455a64"></rect><rect x="258.76" y="53.54" width="5.52" height="1.12" style="fill:#455a64"></rect><rect x="270.06" y="44.57" width="15.58" height="1.12" style="fill:#455a64"></rect><rect x="286.98" y="44.57" width="13.12" height="1.12" style="fill:#455a64"></rect><rect x="266.56" y="41.57" width="15.56" height="1.12" style="fill:#455a64"></rect><rect x="250.03" y="44.57" width="3.23" height="1.12" style="fill:#455a64"></rect><rect x="250.03" y="47.56" width="3.23" height="1.12" style="fill:#455a64"></rect><rect x="253.26" y="50.55" width="3.23" height="1.12" style="fill:#455a64"></rect><rect x="253.26" y="53.54" width="3.23" height="1.12" style="fill:#455a64"></rect><rect x="225.75" y="26.52" width="11.55" height="0.87" style="fill:#263238"></rect><rect x="225.75" y="28.9" width="11.55" height="0.87" style="fill:#263238"></rect><rect x="225.75" y="31.28" width="11.55" height="0.87" style="fill:#263238"></rect><rect x="225.75" y="33.66" width="11.55" height="0.87" style="fill:#263238"></rect><rect x="265.82" width="7.72" height="21.45" style="fill:#263238"></rect><rect x="326.34" y="21.45" width="97.33" height="56.15" style="fill:#37474f"></rect><rect x="330.86" y="25.76" width="88.29" height="47.53" style="fill:#263238"></rect><rect x="371.14" width="7.72" height="21.45" style="fill:#263238"></rect><rect x="431.66" y="21.45" width="97.33" height="56.15" transform="translate(960.64 99.05) rotate(180)" style="fill:#37474f"></rect><rect x="435.97" y="25.76" width="69.84" height="47.53" transform="translate(941.77 99.05) rotate(180)" style="fill:#263238"></rect><rect x="441.74" y="51.32" width="3.23" height="1.12" style="fill:#455a64"></rect><rect x="447.32" y="51.32" width="21.92" height="1.12" style="fill:#455a64"></rect><rect x="471.22" y="51.32" width="6.13" height="1.12" style="fill:#455a64"></rect><rect x="485.25" y="37.81" width="6.13" height="1.12" style="fill:#455a64"></rect><rect x="478.69" y="51.32" width="10.6" height="1.12" style="fill:#455a64"></rect><rect x="444.97" y="54.31" width="3.23" height="1.12" style="fill:#455a64"></rect><rect x="450.47" y="54.31" width="14.23" height="1.12" style="fill:#455a64"></rect><rect x="469.56" y="37.81" width="14.23" height="1.12" style="fill:#455a64"></rect><rect x="447.32" y="34.82" width="13.14" height="1.12" style="fill:#455a64"></rect><rect x="450.47" y="57.3" width="6.21" height="1.12" style="fill:#455a64"></rect><rect x="475.32" y="31.83" width="6.21" height="1.12" style="fill:#455a64"></rect><rect x="458.48" y="57.3" width="20.97" height="1.12" style="fill:#455a64"></rect><rect x="447.32" y="37.81" width="20.97" height="1.12" style="fill:#455a64"></rect><rect x="478" y="54.31" width="16.82" height="1.12" style="fill:#455a64"></rect><rect x="466.22" y="54.31" width="10.45" height="1.12" style="fill:#455a64"></rect><rect x="480.67" y="57.3" width="10.45" height="1.12" style="fill:#455a64"></rect><rect x="444.97" y="57.3" width="3.23" height="1.12" style="fill:#455a64"></rect><rect x="441.74" y="31.83" width="3.23" height="1.12" style="fill:#455a64"></rect><rect x="447.32" y="31.83" width="9.01" height="1.12" style="fill:#455a64"></rect><rect x="450.47" y="40.81" width="9.01" height="1.12" style="fill:#455a64"></rect><rect x="470.93" y="43.8" width="14.5" height="1.12" style="fill:#455a64"></rect><rect x="461.02" y="40.81" width="14.1" height="1.12" style="fill:#455a64"></rect><rect x="457.65" y="43.8" width="11.62" height="1.12" style="fill:#455a64"></rect><rect x="476.77" y="40.81" width="18.05" height="1.12" style="fill:#455a64"></rect><rect x="450.47" y="43.8" width="5.52" height="1.12" style="fill:#455a64"></rect><rect x="461.77" y="34.82" width="15.58" height="1.12" style="fill:#455a64"></rect><rect x="478.69" y="34.82" width="13.12" height="1.12" style="fill:#455a64"></rect><rect x="458.26" y="31.83" width="15.56" height="1.12" style="fill:#455a64"></rect><rect x="441.74" y="34.82" width="3.23" height="1.12" style="fill:#455a64"></rect><rect x="441.74" y="37.81" width="3.23" height="1.12" style="fill:#455a64"></rect><rect x="444.97" y="40.81" width="3.23" height="1.12" style="fill:#455a64"></rect><rect x="444.97" y="43.8" width="3.23" height="1.12" style="fill:#455a64"></rect><rect x="512.71" y="26.52" width="11.55" height="0.87" transform="translate(1036.96 53.91) rotate(180)" style="fill:#263238"></rect><rect x="512.71" y="28.9" width="11.55" height="0.87" transform="translate(1036.96 58.67) rotate(180)" style="fill:#263238"></rect><rect x="512.71" y="31.28" width="11.55" height="0.87" transform="translate(1036.96 63.43) rotate(180)" style="fill:#263238"></rect><rect x="512.71" y="33.66" width="11.55" height="0.87" transform="translate(1036.96 68.19) rotate(180)" style="fill:#263238"></rect><rect x="476.46" width="7.72" height="21.45" transform="translate(960.64 21.45) rotate(180)" style="fill:#263238"></rect></g><g id="freepik--device-1--inject-130"><polygon points="50.81 308.3 56.72 262.21 132.32 262.21 138.22 308.3 50.81 308.3" style="fill:#455a64"></polygon><polygon points="129.34 304.38 59.92 304.38 64.06 265.68 124.98 265.68 129.34 304.38" style="fill:#263238"></polygon><polygon points="70.72 299.88 67.97 299.88 68.15 297.76 70.88 297.76 70.72 299.88" style="fill:#BA68C8"></polygon><polygon points="102.66 298.39 72.73 298.39 72.77 297.76 102.64 297.76 102.66 298.39" style="fill:#fff"></polygon><polygon points="92.06 299.88 72.63 299.88 72.67 299.25 92.06 299.25 92.06 299.88" style="fill:#fff"></polygon><path d="M69.05,273.21c8.5,0,17,0,25.49,0s17,0,25.48,0c-8.49,0-17,0-25.48.05S77.55,273.25,69.05,273.21Z" style="fill:#fff"></path><path d="M68.69,277.45c8.62,0,17.24,0,25.86-.05s17.24,0,25.87.05c-8.62,0-17.25,0-25.87.05S77.31,277.49,68.69,277.45Z" style="fill:#fff"></path><path d="M68.32,281.69c8.75,0,17.5,0,26.24-.05s17.5,0,26.25.05c-8.75.05-17.5,0-26.25.05S77.07,281.74,68.32,281.69Z" style="fill:#fff"></path><path d="M68,285.93c8.88,0,17.75,0,26.63-.05s17.74,0,26.62.05c-8.87.05-17.75,0-26.62.05S76.83,286,68,285.93Z" style="fill:#fff"></path><path d="M67.59,290.17c9,0,18,0,27-.05s18,0,27,.05c-9,.05-18,0-27,.05S76.58,290.22,67.59,290.17Z" style="fill:#fff"></path><path d="M79.46,270.45c-.13,4-.35,7.93-.51,11.89s-.42,7.92-.69,11.89c.12-4,.34-7.93.51-11.89S79.18,274.41,79.46,270.45Z" style="fill:#fff"></path><path d="M88.18,270.45c0,4-.09,7.93-.14,11.89s-.16,7.92-.32,11.89c0-4,.1-7.93.14-11.89S88,274.41,88.18,270.45Z" style="fill:#fff"></path><path d="M96.91,270.45c.12,4,.15,7.93.23,11.89s.08,7.92,0,11.89c-.12-4-.15-7.93-.22-11.89S96.88,274.41,96.91,270.45Z" style="fill:#fff"></path><path d="M105.64,270.45c.25,4,.39,7.93.6,11.89s.32,7.92.41,11.89c-.25-4-.4-7.93-.59-11.89S105.73,274.41,105.64,270.45Z" style="fill:#fff"></path><path d="M114.37,270.45c.37,4,.64,7.93,1,11.89s.57,7.92.78,11.89c-.37-4-.64-7.93-1-11.89S114.59,274.41,114.37,270.45Z" style="fill:#fff"></path><path d="M69.2,287.1c1.63,0,2.92-4.31,5.2-4.31s2.34,3.14,4.27,3.14,2.13-5.52,4.68-5.52,1.9,2.24,4.6,2.24,1.75-5.2,4.51-5.2,1.66,7.16,4.61,7.16c1.87,0,2.55-2.27,4.77-2.27,1.46,0,2.37,1.14,4.29,1.14s2.13-4.38,4.5-4.38,2.81,2.59,4.56,2.59,2-4.24,5.23-4.24L122,294.23H68.61Z" style="fill:#BA68C8;opacity:0.5"></path><path d="M69.18,287.3l0-.41c.49,0,1.25-1,1.8-1.74.94-1.26,1.91-2.57,3.39-2.57a3.15,3.15,0,0,1,2.66,1.8c.45.66.93,1.34,1.61,1.34s1.2-1.32,1.62-2.29c.69-1.59,1.4-3.23,3.06-3.23a2.93,2.93,0,0,1,2.54,1.22,2.36,2.36,0,0,0,2,1c1,0,1.46-1.21,1.86-2.39.48-1.38,1-2.81,2.65-2.81S94.57,279,95,281c.38,1.54.86,3.46,2,3.46a3.09,3.09,0,0,0,1.87-1,4.28,4.28,0,0,1,2.89-1.3,4.84,4.84,0,0,1,2.07.56,5.3,5.3,0,0,0,2.22.58c.67,0,1.23-1,1.68-1.88.65-1.23,1.31-2.5,2.81-2.5a3.89,3.89,0,0,1,3,1.56c.51.53,1,1,1.59,1s1-.8,1.46-1.51c.76-1.22,1.69-2.73,3.76-2.73l0,.42c-1.6,0-2.4,1.31-3.13,2.46s-1.11,1.78-2.1,1.78a3,3,0,0,1-2.24-1.26,3.23,3.23,0,0,0-2.33-1.33c-1,0-1.61,1.18-2.16,2.21s-1.15,2.16-2.34,2.16a6.16,6.16,0,0,1-2.68-.67,4,4,0,0,0-1.62-.46,3.58,3.58,0,0,0-2.3,1.12,3.71,3.71,0,0,1-2.46,1.15c-1.81,0-2.27-1.85-2.75-3.81-.36-1.5-.81-3.35-1.87-3.35s-1.55,1.31-1.95,2.47c-.48,1.4-.94,2.73-2.57,2.73a3.08,3.08,0,0,1-2.68-1.25,2.23,2.23,0,0,0-1.91-1c-1.09,0-1.79,1.61-2.35,2.9-.64,1.46-1.15,2.62-2.34,2.62s-1.7-.78-2.27-1.6-1.06-1.54-2-1.54-1.93,1.27-2.69,2.3S70.18,287.3,69.18,287.3Z" style="fill:#BA68C8"></path><path d="M70.54,270.71c-.26,3.92-.53,7.84-.85,11.76l-.9,11.76-.17-.1,26.67,0,13.34,0,13.34.06-13.34,0-13.34,0-26.68,0h-.18v-.09l1-11.76C69.79,278.55,70.16,274.63,70.54,270.71Z" style="fill:#fff"></path><rect x="50.81" y="308.3" width="87.41" height="6.4" style="fill:#37474f"></rect><rect x="61.28" y="314.7" width="66.48" height="151.89" style="fill:#455a64"></rect><rect x="70.43" y="328.57" width="48.17" height="16.57" style="fill:#263238"></rect><rect x="71.4" y="334.76" width="4.12" height="4.12" style="fill:#BA68C8"></rect><rect x="76.66" y="334.76" width="4.12" height="4.12" style="fill:#BA68C8"></rect><rect x="81.93" y="334.76" width="4.12" height="4.12" style="fill:#BA68C8"></rect><rect x="87.19" y="334.76" width="4.12" height="4.12" style="fill:#fff"></rect><rect x="92.46" y="334.76" width="4.12" height="4.12" style="fill:#fff"></rect><rect x="97.72" y="334.76" width="4.12" height="4.12" style="fill:#BA68C8"></rect><rect x="102.98" y="334.76" width="4.12" height="4.12" style="fill:#BA68C8"></rect><rect x="108.25" y="334.76" width="4.12" height="4.12" style="fill:#fff"></rect><rect x="113.51" y="334.76" width="4.12" height="4.12" style="fill:#BA68C8"></rect><rect x="71.4" y="340.08" width="4.12" height="4.12" style="fill:#BA68C8"></rect><rect x="76.66" y="340.08" width="4.12" height="4.12" style="fill:#fff"></rect><rect x="81.93" y="340.08" width="4.12" height="4.12" style="fill:#BA68C8"></rect><rect x="87.19" y="340.08" width="4.12" height="4.12" style="fill:#BA68C8"></rect><rect x="92.46" y="340.08" width="4.12" height="4.12" style="fill:#BA68C8"></rect><rect x="97.72" y="340.08" width="4.12" height="4.12" style="fill:#BA68C8"></rect><rect x="102.98" y="340.08" width="4.12" height="4.12" style="fill:#fff"></rect><rect x="108.25" y="340.08" width="4.12" height="4.12" style="fill:#BA68C8"></rect><rect x="113.51" y="340.08" width="4.12" height="4.12" style="fill:#BA68C8"></rect><rect x="76.66" y="330.77" width="35.71" height="1.42" style="fill:#37474f"></rect></g><g id="freepik--control-panel--inject-130"><polygon points="184.83 334.21 210.52 302.06 539.48 302.06 565.17 334.21 184.83 334.21" style="fill:#455a64"></polygon><rect x="184.83" y="334.21" width="380.34" height="6.74" style="fill:#37474f"></rect><polygon points="538.17 328.2 546.02 328.2 531 307.92 523.79 307.92 538.17 328.2" style="fill:#263238"></polygon><rect x="533.69" y="310.22" width="2.43" height="8.61" transform="translate(1069.81 629.05) rotate(180)" style="fill:#fff"></rect><path d="M531.27,309.24c0,1.22,1.63,2.21,3.64,2.21s3.63-1,3.63-2.21-1.62-2.21-3.63-2.21S531.27,308,531.27,309.24Z" style="fill:#BA68C8"></path><polygon points="522.34 328.2 530.2 328.2 516.47 307.92 509.27 307.92 522.34 328.2" style="fill:#263238"></polygon><rect x="518.52" y="314.4" width="2.43" height="4.43" transform="translate(1039.46 633.23) rotate(180)" style="fill:#fff"></rect><path d="M516.09,313.65c0,1.22,1.63,2.21,3.64,2.21s3.64-1,3.64-2.21-1.63-2.2-3.64-2.2S516.09,312.44,516.09,313.65Z" style="fill:#BA68C8"></path><polygon points="506.51 328.2 514.37 328.2 501.95 307.92 494.74 307.92 506.51 328.2" style="fill:#263238"></polygon><rect x="503.34" y="318.83" width="2.43" height="5.9" transform="translate(1009.11 643.55) rotate(180)" style="fill:#fff"></rect><path d="M500.92,325.22c0,1.22,1.63,2.21,3.63,2.21s3.64-1,3.64-2.21-1.63-2.21-3.64-2.21S500.92,324,500.92,325.22Z" style="fill:#BA68C8"></path><polygon points="490.69 328.2 498.54 328.2 487.42 307.92 480.21 307.92 490.69 328.2" style="fill:#263238"></polygon><rect x="488.16" y="312.37" width="2.43" height="6.46" transform="translate(978.75 631.2) rotate(180)" style="fill:#fff"></rect><path d="M485.74,311.17c0,1.22,1.63,2.21,3.64,2.21s3.63-1,3.63-2.21-1.63-2.2-3.63-2.2S485.74,310,485.74,311.17Z" style="fill:#BA68C8"></path><polygon points="432.2 328.2 435.07 328.2 429.16 307.92 426.53 307.92 432.2 328.2" style="fill:#263238"></polygon><polygon points="422.58 310.46 434.45 310.46 434.14 309.48 422.33 309.48 422.58 310.46" style="fill:#BA68C8"></polygon><polygon points="414.88 328.2 417.75 328.2 413.26 307.92 410.63 307.92 414.88 328.2" style="fill:#263238"></polygon><polygon points="408.96 323.45 421.5 323.45 421.26 322.47 408.77 322.47 408.96 323.45" style="fill:#BA68C8"></polygon><polygon points="397.55 328.2 400.42 328.2 397.36 307.92 394.73 307.92 397.55 328.2" style="fill:#263238"></polygon><polygon points="390.71 312.87 402.7 312.87 402.53 311.89 390.59 311.89 390.71 312.87" style="fill:#BA68C8"></polygon><polygon points="380.23 328.2 383.1 328.2 381.46 307.92 378.83 307.92 380.23 328.2" style="fill:#263238"></polygon><polygon points="374.6 315.68 386.74 315.68 386.64 314.7 374.55 314.7 374.6 315.68" style="fill:#BA68C8"></polygon><polygon points="362.9 328.2 365.77 328.2 365.56 307.92 362.93 307.92 362.9 328.2" style="fill:#263238"></polygon><polygon points="358 322.96 370.51 322.96 370.48 321.98 358.02 321.98 358 322.96" style="fill:#BA68C8"></polygon><polygon points="459.37 310.02 469.41 310.02 468.44 307.92 458.48 307.92 459.37 310.02" style="fill:#dbdbdb"></polygon><polygon points="460.9 313.65 471.1 313.65 470.12 311.56 460.01 311.56 460.9 313.65" style="fill:#a6a6a6"></polygon><polygon points="462.43 317.29 472.79 317.29 471.81 315.19 461.54 315.19 462.43 317.29" style="fill:#BA68C8"></polygon><polygon points="463.96 320.93 474.48 320.93 473.5 318.83 463.07 318.83 463.96 320.93" style="fill:#dbdbdb"></polygon><polygon points="465.49 324.56 476.17 324.56 475.19 322.47 464.6 322.47 465.49 324.56" style="fill:#a6a6a6"></polygon><polygon points="467.01 328.2 477.86 328.2 476.88 326.1 466.13 326.1 467.01 328.2" style="fill:#dbdbdb"></polygon><polygon points="444 310.02 454.04 310.02 453.2 307.92 443.25 307.92 444 310.02" style="fill:#dbdbdb"></polygon><polygon points="445.28 313.65 455.48 313.65 454.65 311.56 444.54 311.56 445.28 313.65" style="fill:#BA68C8"></polygon><polygon points="446.57 317.29 456.93 317.29 456.1 315.19 445.82 315.19 446.57 317.29" style="fill:#a6a6a6"></polygon><polygon points="447.85 320.93 458.37 320.93 457.54 318.83 447.11 318.83 447.85 320.93" style="fill:#dbdbdb"></polygon><polygon points="449.14 324.56 459.82 324.56 458.99 322.47 448.4 322.47 449.14 324.56" style="fill:#a6a6a6"></polygon><polygon points="450.42 328.2 461.26 328.2 460.43 326.1 449.68 326.1 450.42 328.2" style="fill:#BA68C8"></polygon><polygon points="247.72 311.06 255.55 311.06 257.02 307.92 249.29 307.92 247.72 311.06" style="fill:#a6a6a6"></polygon><polygon points="245.56 315.35 253.54 315.35 255.01 312.2 247.14 312.2 245.56 315.35" style="fill:#BA68C8"></polygon><polygon points="243.41 319.63 251.53 319.63 253.01 316.49 244.99 316.49 243.41 319.63" style="fill:#dbdbdb"></polygon><polygon points="241.26 323.92 249.53 323.92 251 320.77 242.84 320.77 241.26 323.92" style="fill:#263238"></polygon><polygon points="239.1 328.2 247.52 328.2 248.99 325.06 240.68 325.06 239.1 328.2" style="fill:#a6a6a6"></polygon><polygon points="237.32 311.06 245.15 311.06 246.77 307.92 239.04 307.92 237.32 311.06" style="fill:#dbdbdb"></polygon><polygon points="234.97 315.35 242.95 315.35 244.57 312.2 236.69 312.2 234.97 315.35" style="fill:#263238"></polygon><polygon points="232.63 319.63 240.75 319.63 242.37 316.49 234.35 316.49 232.63 319.63" style="fill:#a6a6a6"></polygon><polygon points="230.28 323.92 238.55 323.92 240.16 320.77 232 320.77 230.28 323.92" style="fill:#BA68C8"></polygon><polygon points="227.93 328.2 236.35 328.2 237.96 325.06 229.65 325.06 227.93 328.2" style="fill:#dbdbdb"></polygon><polygon points="226.92 311.06 234.76 311.06 236.51 307.92 228.79 307.92 226.92 311.06" style="fill:#a6a6a6"></polygon><polygon points="224.38 315.35 232.36 315.35 234.12 312.2 226.25 312.2 224.38 315.35" style="fill:#dbdbdb"></polygon><polygon points="221.84 319.63 229.97 319.63 231.72 316.49 223.7 316.49 221.84 319.63" style="fill:#BA68C8"></polygon><polygon points="219.3 323.92 227.57 323.92 229.33 320.77 221.16 320.77 219.3 323.92" style="fill:#a6a6a6"></polygon><polygon points="216.76 328.2 225.18 328.2 226.93 325.06 218.62 325.06 216.76 328.2" style="fill:#BA68C8"></polygon><polygon points="216.53 311.06 224.36 311.06 226.26 307.92 218.53 307.92 216.53 311.06" style="fill:#BA68C8"></polygon><polygon points="213.79 315.35 221.77 315.35 223.67 312.2 215.8 312.2 213.79 315.35" style="fill:#a6a6a6"></polygon><polygon points="211.06 319.63 219.18 319.63 221.08 316.49 213.06 316.49 211.06 319.63" style="fill:#dbdbdb"></polygon><polygon points="208.32 323.92 216.59 323.92 218.49 320.77 210.33 320.77 208.32 323.92" style="fill:#263238"></polygon><polygon points="205.59 328.2 214 328.2 215.9 325.06 207.59 325.06 205.59 328.2" style="fill:#dbdbdb"></polygon><polygon points="258.86 328.2 348.24 328.2 349.47 307.92 267.43 307.92 258.86 328.2" style="fill:#263238"></polygon><polygon points="341.3 310.22 345.35 310.22 345.39 309.8 341.34 309.8 341.3 310.22" style="fill:#BA68C8"></polygon><rect x="191.55" y="340.95" width="366.91" height="125.64" style="fill:#455a64"></rect></g><g id="freepik--Capsule--inject-130"><path d="M683.62,80.13l-115.41.23c.67-1.4.27,363.5.5,363.22l-.5-.49c-.32.05,117.34-.46,115,.49l.42-363.45Zm0,0c.07.2.37,363.65.42,363.88-.22.34-115.53-.17-115.83.07h-.5v-.5L568,80.13v-.24h.24l115.41.24Z" style="fill:#c7c7c7"></path><rect x="571.13" y="127.34" width="109.56" height="312.97" style="fill:#BA68C8;opacity:0.9"></rect><g style="opacity:0.4"><path d="M661.63,248.4a2,2,0,1,0,2-2A2,2,0,0,0,661.63,248.4Z" style="fill:#fff"></path><path d="M621.86,336.18a2,2,0,1,0,2-2A2,2,0,0,0,621.86,336.18Z" style="fill:#fff"></path><path d="M589.93,157.14a2,2,0,1,0,2-2A2,2,0,0,0,589.93,157.14Z" style="fill:#fff"></path><path d="M580,416a2,2,0,1,0-.37-2.8A2,2,0,0,0,580,416Z" style="fill:#fff"></path><path d="M655.25,428.29a2,2,0,1,0-.37-2.8A2,2,0,0,0,655.25,428.29Z" style="fill:#fff"></path><path d="M584,306.18a2,2,0,1,0,2-2A2,2,0,0,0,584,306.18Z" style="fill:#fff"></path><path d="M664.53,323.62a2.7,2.7,0,1,0,2.7-2.71A2.7,2.7,0,0,0,664.53,323.62Z" style="fill:#fff"></path><path d="M585.07,400.89a2.7,2.7,0,1,0-.49-3.79A2.7,2.7,0,0,0,585.07,400.89Z" style="fill:#fff"></path><path d="M655.29,311.08a1.18,1.18,0,1,0,1.18-1.18A1.18,1.18,0,0,0,655.29,311.08Z" style="fill:#fff"></path><circle cx="613.53" cy="233.29" r="1.17" style="fill:#fff"></circle><circle cx="671.1" cy="141.73" r="1.17" style="fill:#fff"></circle><path d="M585.5,184.43a1.17,1.17,0,1,0,1.17-1.17A1.17,1.17,0,0,0,585.5,184.43Z" style="fill:#fff"></path><path d="M668.76,384.2a1.17,1.17,0,1,0,1.17-1.17A1.17,1.17,0,0,0,668.76,384.2Z" style="fill:#fff"></path><path d="M658.87,229.15A1.18,1.18,0,1,0,660,228,1.17,1.17,0,0,0,658.87,229.15Z" style="fill:#fff"></path><path d="M590.23,291.88a1.17,1.17,0,1,0,1.17-1.17A1.17,1.17,0,0,0,590.23,291.88Z" style="fill:#fff"></path><path d="M593.35,402.63a1.18,1.18,0,1,0,1.18-1.18A1.18,1.18,0,0,0,593.35,402.63Z" style="fill:#fff"></path></g><path d="M607.31,263.52c.88-9.79,15.47-25.94,17.91-35.86s-2.61-14-9.53-18.41-17.44-5.46-17.8-14.86,16.86-22.21,29.59-17.12,26.46,23.22,26.46,37.93c0,19.38-30.53,34.72-33.15,48.94s6.12,18.62,16.23,26.62c12.77,10.1,13,25.67.91,41-3,3.74.56-3.3,1.61-7.36s6.41-17.56-1.61-25.13S605.14,287.76,607.31,263.52Z" style="fill:#BA68C8"></path><path d="M626.34,222.36c-1.12-3.23-8.58-4.52-9.46-3.76s-2.5,2.88-1.6,3.26,1.91-1.56,3.13-1.43,4.88,2.45,5.24,5,0,4.72,1.3,4.87S626.34,222.36,626.34,222.36Z" style="fill:#BA68C8"></path><g style="opacity:0.1"><path d="M607.31,263.52c.88-9.79,15.47-25.94,17.91-35.86s-2.61-14-9.53-18.41-17.44-5.46-17.8-14.86,16.86-22.21,29.59-17.12,26.46,23.22,26.46,37.93c0,19.38-30.53,34.72-33.15,48.94s6.12,18.62,16.23,26.62c12.77,10.1,13,25.67.91,41-3,3.74.56-3.3,1.61-7.36s6.41-17.56-1.61-25.13S605.14,287.76,607.31,263.52Z"></path><path d="M626.34,222.36c-1.12-3.23-8.58-4.52-9.46-3.76s-2.5,2.88-1.6,3.26,1.91-1.56,3.13-1.43,4.88,2.45,5.24,5,0,4.72,1.3,4.87S626.34,222.36,626.34,222.36Z"></path></g><rect x="563.91" y="356.61" width="124.08" height="10.99" style="fill:#455a64"></rect><rect x="563.91" y="344.03" width="124.08" height="10.99" style="fill:#455a64"></rect><polygon points="688.85 443.58 562.14 443.58 552.07 466.59 699.82 466.59 688.85 443.58" style="fill:#455a64"></polygon><polygon points="565.24 466.59 563.67 466.59 572.09 443.58 573.43 443.58 565.24 466.59" style="fill:#37474f"></polygon><polygon points="589.84 466.59 588.27 466.59 593.18 443.58 594.53 443.58 589.84 466.59" style="fill:#37474f"></polygon><polygon points="614.43 466.59 612.87 466.59 614.28 443.58 615.62 443.58 614.43 466.59" style="fill:#37474f"></polygon><polygon points="639.03 466.59 637.46 466.59 635.37 443.58 636.72 443.58 639.03 466.59" style="fill:#37474f"></polygon><polygon points="663.63 466.59 662.06 466.59 656.47 443.58 657.81 443.58 663.63 466.59" style="fill:#37474f"></polygon><polygon points="688.22 466.59 686.65 466.59 677.56 443.58 678.9 443.58 688.22 466.59" style="fill:#37474f"></polygon><path d="M563.36,453.18a5.1,5.1,0,1,1-5.09-5.09A5.09,5.09,0,0,1,563.36,453.18Z" style="fill:#37474f"></path><path d="M585.77,453.18a5.1,5.1,0,1,1-5.09-5.09A5.09,5.09,0,0,1,585.77,453.18Z" style="fill:#37474f"></path><path d="M608.18,453.18a5.1,5.1,0,1,1-5.09-5.09A5.09,5.09,0,0,1,608.18,453.18Z" style="fill:#37474f"></path><path d="M630.59,453.18a5.1,5.1,0,1,1-5.09-5.09A5.09,5.09,0,0,1,630.59,453.18Z" style="fill:#37474f"></path><path d="M653,453.18a5.1,5.1,0,1,1-5.09-5.09A5.09,5.09,0,0,1,653,453.18Z" style="fill:#37474f"></path><path d="M675.41,453.18a5.1,5.1,0,1,1-5.1-5.09A5.1,5.1,0,0,1,675.41,453.18Z" style="fill:#37474f"></path><path d="M697.82,453.18a5.1,5.1,0,1,1-5.1-5.09A5.1,5.1,0,0,1,697.82,453.18Z" style="fill:#37474f"></path><polygon points="563.04 80.13 688.79 80.13 699.82 57.12 552.07 57.12 563.04 80.13" style="fill:#455a64"></polygon><polygon points="563.04 30.72 688.79 30.72 699.82 44.49 552.07 44.49 563.04 30.72" style="fill:#455a64"></polygon><polygon points="686.65 57.12 688.22 57.12 679.81 80.13 678.46 80.13 686.65 57.12" style="fill:#37474f"></polygon><polygon points="662.06 57.12 663.63 57.12 658.71 80.13 657.37 80.13 662.06 57.12" style="fill:#37474f"></polygon><polygon points="637.46 57.12 639.03 57.12 637.62 80.13 636.27 80.13 637.46 57.12" style="fill:#37474f"></polygon><polygon points="612.87 57.12 614.43 57.12 616.52 80.13 615.18 80.13 612.87 57.12" style="fill:#37474f"></polygon><polygon points="588.27 57.12 589.84 57.12 595.43 80.13 594.08 80.13 588.27 57.12" style="fill:#37474f"></polygon><polygon points="563.67 57.12 565.24 57.12 574.33 80.13 572.99 80.13 563.67 57.12" style="fill:#37474f"></polygon><path d="M688.53,70.53a5.1,5.1,0,1,1,5.1,5.09A5.09,5.09,0,0,1,688.53,70.53Z" style="fill:#37474f"></path><path d="M666.12,70.53a5.1,5.1,0,1,1,5.1,5.09A5.09,5.09,0,0,1,666.12,70.53Z" style="fill:#37474f"></path><path d="M643.71,70.53a5.1,5.1,0,1,1,5.1,5.09A5.09,5.09,0,0,1,643.71,70.53Z" style="fill:#37474f"></path><path d="M621.31,70.53a5.09,5.09,0,1,1,5.09,5.09A5.09,5.09,0,0,1,621.31,70.53Z" style="fill:#37474f"></path><path d="M598.9,70.53A5.09,5.09,0,1,1,604,75.62,5.09,5.09,0,0,1,598.9,70.53Z" style="fill:#37474f"></path><path d="M576.49,70.53a5.09,5.09,0,1,1,5.09,5.09A5.09,5.09,0,0,1,576.49,70.53Z" style="fill:#37474f"></path><path d="M554.08,70.53a5.09,5.09,0,1,1,5.09,5.09A5.09,5.09,0,0,1,554.08,70.53Z" style="fill:#37474f"></path><rect x="563.04" y="80.13" width="5.17" height="21.49" style="fill:#455a64"></rect><rect x="591.88" y="80.13" width="5.17" height="21.49" style="fill:#455a64"></rect><rect x="597.04" y="80.13" width="1.88" height="21.49" transform="translate(1195.97 181.74) rotate(180)" style="fill:#37474f"></rect><rect x="622.4" y="80.13" width="7.09" height="21.49" style="fill:#455a64"></rect><rect x="655.75" y="80.13" width="5.17" height="21.49" transform="translate(1316.67 181.74) rotate(180)" style="fill:#455a64"></rect><rect x="653.87" y="80.13" width="1.88" height="21.49" style="fill:#37474f"></rect><rect x="683.62" y="80.13" width="5.17" height="21.49" style="fill:#455a64"></rect><rect x="552.07" y="44.5" width="147.75" height="12.63" style="fill:#37474f"></rect><rect x="563.04" width="125.75" height="30.72" style="fill:#37474f"></rect></g><g id="freepik--alien-2--inject-130"><path d="M394.33,409.33l38.52.37a12.27,12.27,0,0,0,2.87-6.66c.75-13.45-4-46.1-6.23-60.19-3.46-21.74-34.57-16.61-45.43-24.05C382,317.39,382,306.57,382,306.57l-31.27.62s-9.37,22.05.59,39.27c6.16,10.63,40.18,11.67,40.18,11.67s-1.59,36.5-.49,45.64C391.19,405.38,394.33,409.33,394.33,409.33Z" style="fill:#BA68C8"></path><path d="M347.28,320.38l88.31,72.86c-.88-15.7-4.3-39.06-6.1-50.39-3.46-21.74-34.57-16.61-45.44-24.05C382,317.39,382,306.57,382,306.57l-31.27.62A58.57,58.57,0,0,0,347.28,320.38Z" style="opacity:0.1"></path><path d="M458.37,466.7c-2,.64-58.84-.08-61-1.48-.82-.52-1.2-8.81-1.37-18.84,0-.11-1.68-37.05-1.68-37.05l38.52.37v37s21.45,10,23.65,11.81S460.36,466.07,458.37,466.7Z" style="fill:#263238"></path><path d="M432.85,446.74c-8.62,1.48-18.14,2.75-26.84,3.57,8.61-1.48,18.14-2.74,26.84-3.57Z" style="fill:#455a64"></path><path d="M435.6,448.11c-9.52,1-20,1.82-29.59,2.2,9.52-1,20-1.82,29.59-2.2Z" style="fill:#455a64"></path><path d="M433.07,444.4c-8.65,2.22-18.26,4.33-27.06,5.91,8.66-2.23,18.27-4.32,27.06-5.91Z" style="fill:#455a64"></path><ellipse cx="413.53" cy="449.21" rx="9.73" ry="11.16" style="fill:#455a64"></ellipse><ellipse cx="413.98" cy="449.21" rx="7.89" ry="9.05" style="fill:#37474f"></ellipse><path d="M391.48,358.35C401.81,350,413.4,341,424.13,333.16c-10.33,8.39-21.92,17.33-32.65,25.19Z" style="fill:#263238"></path><path d="M391.48,358.35c10.82-7.75,22.92-16,34.11-23.18-10.82,7.75-22.92,16-34.11,23.18Z" style="fill:#263238"></path><path d="M391.48,358.35c11.39-7,24.1-14.31,35.82-20.7-11.39,7-24.1,14.31-35.82,20.7Z" style="fill:#263238"></path><path d="M429.78,362.08c1.87,5.88,7.8,29.72,10.85,40.93,1.14,4.18,6.25,7.47,6.25,7.47l38.52.37a20.5,20.5,0,0,0,1.19-10.28c-2.81-16.6-15.86-53.64-24.07-63C450.86,324.28,400,323,399,320.93a83.76,83.76,0,0,1-5.16-14.69l-42.14.93s-10.92,32.21,3.41,43.23C370.6,362.3,428.15,357,429.78,362.08Z" style="fill:#BA68C8"></path><path d="M429.78,362.08c8.68-9.55,18.49-19.82,27.65-28.92-8.68,9.56-18.5,19.82-27.65,28.92Z" style="fill:#263238"></path><path d="M429.78,362.08c9.24-9,19.65-18.67,29.34-27.21-9.24,9-19.66,18.67-29.34,27.21Z" style="fill:#263238"></path><path d="M429.78,362.08c9.9-8.34,21-17.24,31.33-25.07-9.9,8.34-21,17.24-31.33,25.07Z" style="fill:#263238"></path><path d="M516.35,467.85c-2,.64-58.84-.08-61-1.48-.82-.52-1.2-8.81-1.37-18.84,0-.11-7.11-37-7.11-37l38.52.37,5.43,37s21.45,10,23.65,11.81S518.34,467.21,516.35,467.85Z" style="fill:#263238"></path><path d="M490.83,447.89c-8.62,1.48-18.14,2.74-26.84,3.57,8.61-1.48,18.14-2.74,26.84-3.57Z" style="fill:#455a64"></path><path d="M493.58,449.26c-9.52,1-20,1.82-29.59,2.2,9.52-1,20-1.82,29.59-2.2Z" style="fill:#455a64"></path><path d="M491.05,445.55c-8.65,2.22-18.26,4.32-27.06,5.91,8.66-2.23,18.27-4.33,27.06-5.91Z" style="fill:#455a64"></path><ellipse cx="471.51" cy="450.36" rx="9.73" ry="11.16" style="fill:#455a64"></ellipse><ellipse cx="471.96" cy="450.36" rx="7.89" ry="9.05" style="fill:#37474f"></ellipse><path d="M383.19,261.9c-2.6.12-6.59-5.88-7.68-9.92-.07-.28.69-2.84,1.48-6,.48-1.93,1-4.08,1.3-6.09l10.07,5.52a36.29,36.29,0,0,0-2.28,7.46,5,5,0,0,0-.07.84v.14C386,255.46,385.69,261.78,383.19,261.9Z" style="fill:#c7c7c7"></path><path d="M386,253.71v.13a5.85,5.85,0,0,1-1.1-.18c-6.1-1.58-6.07-10.83-5.94-13.4l2.52,1.37,6.87,3.77a36.24,36.24,0,0,0-2.28,7.47A4.84,4.84,0,0,0,386,253.71Z" style="fill:#263238"></path><path d="M413.07,238.23c-1.69,4-13.55,15.71-14.56,16.87s-4.64,1.87-6.6.28-14.44-11.53-16.81-14.7-8.29-14.21-7.87-25,13.57-23,21.34-23.87,16.42,3.08,23.19,10c8.79,9,4.85,29.26,3.83,32.08S413.61,237,413.07,238.23Z" style="fill:#c7c7c7"></path><g style="opacity:0.1"><path d="M370.32,223.15c-.89.76-.64,2.42.56,3.71s2.88,1.7,3.77.94.64-2.42-.56-3.71S371.21,222.39,370.32,223.15Z"></path><path d="M393.27,197c-.37.38-.2,1.11.37,1.63a1.31,1.31,0,0,0,1.71.24c.37-.38.2-1.1-.37-1.62S393.63,196.66,393.27,197Z"></path><path d="M409.39,207.28c-.19.19-.1.55.19.81a.66.66,0,0,0,.86.13c.18-.19.1-.56-.19-.82A.65.65,0,0,0,409.39,207.28Z"></path><path d="M409.65,203.19c-.52.26-.54,1.18,0,2s1.31,1.36,1.83,1.09.54-1.18.05-2S410.17,202.92,409.65,203.19Z"></path><path d="M369.69,216.44c-.58.06-.93.9-.79,1.89s.73,1.73,1.31,1.67.93-.91.79-1.89S370.27,216.38,369.69,216.44Z"></path></g><path d="M386.62,256.3c0-.9.1-3.38,0-3.77s-3.85-4.37-5.33-5-4.08-1.66-4.82-1.61S375,251,375,251.59s4.35,11.14,8.38,10.8C386.29,262.14,386.62,256.3,386.62,256.3Z" style="fill:#BA68C8"></path><path d="M350.15,306.57l46.63,0c.17-.19-1.36-36.73-11.91-54.77-1.7-2.91-9.38-3.4-12.37,0C356.55,269.82,350.15,306.57,350.15,306.57Z" style="fill:#BA68C8"></path><polygon points="348.81 311.29 398.59 311.29 398.18 303.63 349.79 303.63 348.81 311.29" style="fill:#455a64"></polygon><path d="M378.17,264c-.83,14.1,6.38,44.13,12.48,46,9.13,2.75,30.16,9.56,38.08,9.72,3,.06,5.94-23.62,2.77-23.62-3.8,0-30.19-6.65-30.81-7.43s-7.83-16.78-13.37-26.52C382.3,253.29,378.52,258.12,378.17,264Z" style="fill:#c7c7c7"></path><path d="M424.69,297.42a55.71,55.71,0,0,0,8.33-2.19c1.71-.66,14.15-7.71,16.14-8.35,2.93-1,26.67.47,28-.15,2.27-1.05,7-1.77,7.4,1.86s-5.31,1.1-6.58,1.31c-2.05.34-18.18,4.21-19,4.68s2.31,7.44,2.25,8,.07,7.31-4.75,9.62c-1.22.58-15,7.26-16.78,8.23s-12.42-.55-12.42-.55Z" style="fill:#c7c7c7"></path><path d="M457.25,296c2.79.4,13.11,1.35,16.45,2.4s8.81,5.09,9.89,5.47,7.27,1.61,5.94,4.91c-1.1,2.75-6.23,1-7.37-1.12-.25-.48-8.57-3.39-9.44-3.59s-15.41,1.43-16.66.31C455.41,303.79,457.25,296,457.25,296Z" style="fill:#c7c7c7"></path><path d="M454.08,303.17c2.71.8,12.77,3.23,15.92,4.75s8,6.32,9,6.85,6.95,2.64,5.16,5.72c-1.49,2.56-6.31.11-7.13-2.18-.18-.5-8-4.59-8.82-4.91s-15.46-.82-16.53-2.11C451.13,310.61,454.08,303.17,454.08,303.17Z" style="fill:#c7c7c7"></path><path d="M385.41,275.22c7.58-1.77,6-11.28,4.38-15s-5.25-8.38-9.74-7.33-5.76,7.39-4.79,13.18S380.19,276.44,385.41,275.22Z" style="fill:#37474f"></path><path d="M433,295.23l-4.29,24.46a10.94,10.94,0,0,1-8,1.52c-10.89-2.25-29.16-8.58-32.63-11.91-4.94-4.73-11.19-29.4-10.88-42.85s5.71-13,12.26-1.79,11.85,22.74,12.34,23,16.78,2.08,25.68,4.5A15.38,15.38,0,0,1,433,295.23Z" style="fill:#BA68C8"></path><path d="M402.14,287c-3.8,7.79-8.3,16.21-12.69,23.7,3.8-7.8,8.31-16.22,12.69-23.7Z" style="fill:#263238"></path><path d="M402.14,287c-4.44,7.5-9.64,15.58-14.64,22.73,4.44-7.51,9.65-15.58,14.64-22.73Z" style="fill:#263238"></path><path d="M402.14,287c-4.91,7-10.61,14.4-16,21,4.91-7,10.61-14.4,16-21Z" style="fill:#263238"></path><path d="M428.73,319.69a11.36,11.36,0,0,1-9.19,1.54A152.67,152.67,0,0,1,401.22,316c-4.49-1.7-9.17-3.06-13.11-6-3.2-3.76-4.56-8.5-6.1-13.05a106.18,106.18,0,0,1-3.92-18.64,135,135,0,0,0,4.65,18.4c1.59,4.29,3,9.1,6,12.57,6.55,4.24,14.42,6.3,21.78,8.86,5.82,1.5,12.49,5.09,18.21,1.54Z" style="fill:#263238"></path><path d="M377.79,281a33.4,33.4,0,0,1,1.6,5.09,8.9,8.9,0,0,1-1.6-5.09Z" style="fill:#263238"></path><polygon points="318.36 365.87 418.95 365.87 418.95 355.27 381.3 355.27 368.64 281.64 322.2 281.64 318.36 365.87" style="fill:#BA68C8"></polygon><polygon points="318.36 365.87 418.95 365.87 418.95 355.27 381.3 355.27 368.64 281.64 322.2 281.64 318.36 365.87" style="opacity:0.30000000000000004"></polygon><g style="opacity:0.1"><polygon points="363.67 281.64 376.32 355.27 381.29 355.27 368.64 281.64 363.67 281.64"></polygon><rect x="413.98" y="355.27" width="4.97" height="10.61"></rect></g><rect x="361.06" y="365.87" width="6.16" height="4.38" transform="translate(728.29 736.12) rotate(180)" style="fill:#a6a6a6"></rect><rect x="358.57" y="370.25" width="11.15" height="46.66" transform="translate(728.29 787.16) rotate(180)" style="fill:#c7c7c7"></rect><rect x="369.72" y="392.23" width="4.9" height="2.07" transform="translate(744.34 786.52) rotate(180)" style="fill:#a6a6a6"></rect><rect x="374.62" y="391.13" width="9.97" height="4.25" transform="translate(759.2 786.52) rotate(180)" style="fill:#c7c7c7"></rect><rect x="357.13" y="416.91" width="14.37" height="12.96" transform="translate(728.63 846.79) rotate(180)" style="fill:#c7c7c7"></rect><polygon points="362.69 456.9 365.68 456.9 367.36 422.59 361.01 422.59 362.69 456.9" style="fill:#a6a6a6"></polygon><polygon points="403.47 453.3 406.13 451.26 371.5 420.66 371.5 429.88 403.47 453.3" style="fill:#a6a6a6"></polygon><polygon points="325.17 453.3 322.5 451.26 357.13 420.66 357.13 429.88 325.17 453.3" style="fill:#a6a6a6"></polygon><rect x="358.57" y="413.51" width="11.15" height="3.4" transform="translate(728.29 830.43) rotate(180)" style="fill:#a6a6a6"></rect><circle cx="403.58" cy="459.31" r="7.28" transform="translate(-68.22 70.4) rotate(-9.2)" style="fill:#263238"></circle><path d="M400.16,459.31a3.43,3.43,0,1,0,3.42-3.42A3.42,3.42,0,0,0,400.16,459.31Z" style="fill:#fff"></path><circle cx="325.01" cy="459.31" r="7.28" transform="translate(-229.59 364.35) rotate(-45)" style="fill:#263238"></circle><path d="M321.59,459.31a3.42,3.42,0,1,0,3.42-3.42A3.42,3.42,0,0,0,321.59,459.31Z" style="fill:#fff"></path><rect x="361.99" y="454.61" width="4.57" height="11.98" transform="translate(728.54 921.2) rotate(180)" style="fill:#263238"></rect></g><g id="freepik--alien-1--inject-130"><path d="M148.6,447.09h36.78s-6.15-95.63-5.83-97.3c.41-2.13,2.83-11.81,6-24.46,1-3.95,20.43-74.49,20.43-74.49h-34.7s-28.52,81.67-29.66,98.55C140.68,364.11,148.6,447.09,148.6,447.09Z" style="fill:#BA68C8"></path><path d="M179.55,349.8c-12.05-1.29-25.26-3.08-37.23-5,12.05,1.3,25.27,3.09,37.23,5Z" style="fill:#263238"></path><path d="M179.55,349.8c-12.2-.13-25.61-.63-37.79-1.41,12.2.12,25.61.63,37.79,1.41Z" style="fill:#263238"></path><path d="M179.55,349.8c-12.23,1-25.7,1.81-38,2.19,12.22-1,25.7-1.81,38-2.19Z" style="fill:#263238"></path><path d="M123,467.54c2,.65,58.84-.08,61-1.48.82-.52,1.2-8.81,1.37-18.84,0-.1-1.94-37.05-1.94-37.05l-38.52.38,3.62,37s-21.46,10-23.65,11.8S121,466.91,123,467.54Z" style="fill:#263238"></path><path d="M185.38,447.22c-.17,10-.55,18.32-1.37,18.84-1.24.81-20.78,1.4-37.42,1.62l38.31-29.74C185.18,443.24,185.38,447.19,185.38,447.22Z" style="fill:#37474f"></path><ellipse cx="180.42" cy="448.76" rx="8.19" ry="11.16" style="fill:#455a64"></ellipse><ellipse cx="182.66" cy="448.76" rx="6.64" ry="9.05" style="fill:#37474f"></ellipse><path d="M148.54,447.59c8.7.82,18.23,2.08,26.84,3.56-8.7-.82-18.23-2.09-26.84-3.56Z" style="fill:#455a64"></path><path d="M145.79,449c9.56.39,20.07,1.16,29.59,2.2-9.57-.38-20.07-1.16-29.59-2.2Z" style="fill:#455a64"></path><path d="M148.31,445.24c8.8,1.59,18.41,3.68,27.07,5.91-8.8-1.58-18.41-3.68-27.07-5.91Z" style="fill:#455a64"></path><path d="M206,250.85s-14.39,52.26-19,69.33l-15.66-69.34Z" style="opacity:0.1"></path><path d="M171.56,250.84a134.33,134.33,0,0,0,4.6,25.32c.3,1.09.63,2.16,1,3.19a102.93,102.93,0,0,1,9.11,5.14s.4,13.36.8,28.25c.44,16.66,0,34.94-.09,38.88-.35,14.74,4.14,96,4.14,96l36.68.07s-4.56-90.33-4.51-95.73c.08-8.68-2-47-3.55-75-1-17.24-1.77-26.09-1.77-26.09Z" style="fill:#BA68C8"></path><path d="M174.59,278.72a79.54,79.54,0,0,1,12.45,5.8.14.14,0,0,1-.12.26c-4.19-1.8-8.47-3.53-12.56-5.56A.28.28,0,0,1,174.59,278.72Z" style="fill:#263238"></path><path d="M173.32,250c0-.14.27-.17.27,0a138.22,138.22,0,0,0,.7,14c.2,2.16,1.94,14.1,5.68,13.23.63-.15.95-.77,1.05-1.71a14.8,14.8,0,0,0-.5-3.66c-.42-2.5-.75-5-1-7.53a67.41,67.41,0,0,1,.15-14.13.12.12,0,0,1,.24,0,128.34,128.34,0,0,0,1.14,19.5c.47,3.11,2,7.78-1.22,8.26s-5.44-7.34-5.85-9.49A71.91,71.91,0,0,1,173.32,250Z" style="fill:#263238"></path><path d="M179.87,277.54a19.41,19.41,0,0,1,.84,2.47,5.51,5.51,0,0,1,.35,2c0,.13-.18.14-.26.05a7.5,7.5,0,0,1-.87-2c-.28-.76-.58-1.52-.84-2.3A.41.41,0,0,1,179.87,277.54Z" style="fill:#263238"></path><path d="M223.27,349.62c-11.68-.59-24.5-1.58-36.13-2.82,11.68.58,24.5,1.58,36.13,2.82Z" style="fill:#263238"></path><path d="M223.27,349.62c-11.69.12-24.55-.11-36.24-.65,11.7-.12,24.56.11,36.24.65Z" style="fill:#263238"></path><path d="M223.27,349.62c-11.69,1-24.57,1.68-36.3,2,11.69-1,24.57-1.68,36.3-2Z" style="fill:#263238"></path><path d="M165.36,468.1c2,.65,58.84.14,61-1.26.83-.52,1.23-8.8,1.44-18.83v-.32c.05-2.06-1.23-36.72-1.23-36.72l-37.69.22,2.24,36.43,0,.62s-21.67,9.93-23.87,11.71S163.37,467.46,165.36,468.1Z" style="fill:#263238"></path><ellipse cx="222.32" cy="448.7" rx="8.19" ry="11.16" style="fill:#455a64"></ellipse><ellipse cx="224.56" cy="448.7" rx="6.64" ry="9.05" style="fill:#37474f"></ellipse><path d="M191.13,448.24c8.47.59,17.75,1.6,26.15,2.85-8.47-.59-17.75-1.61-26.15-2.85Z" style="fill:#455a64"></path><path d="M187.69,449.83c9.55.08,20.06.52,29.59,1.26-9.56-.08-20.06-.53-29.59-1.26Z" style="fill:#455a64"></path><path d="M191.13,446.43c8.49,1.18,17.77,2.83,26.15,4.66-8.49-1.18-17.77-2.83-26.15-4.66Z" style="fill:#455a64"></path><path d="M111.82,280.87a4.22,4.22,0,0,1-8.44,0,4.22,4.22,0,0,1,8.44,0Zm0,0a4,4,0,0,0-7.95,0,4,4,0,0,0,7.95,0Z" style="fill:#BA68C8"></path><path d="M98.6,280.87c-.09-8.09,10-12.33,15.73-6.6a9.33,9.33,0,0,1,0,13.2c-5.74,5.73-15.83,1.48-15.73-6.6Zm0,0c0,8,9.9,12,15.42,6.3a9,9,0,0,0,0-12.6c-5.52-5.73-15.46-1.68-15.42,6.3Z" style="fill:#BA68C8"></path><path d="M116.61,272c7.94,7.89,2.32,21.6-8.89,21.67a12.8,12.8,0,0,1-12.78-12.78C95,269.66,108.72,264,116.61,272Zm0,0c-7.86-7.82-21.32-2.18-21.24,8.89a12.49,12.49,0,0,0,12.35,12.35c11.07.08,16.71-13.38,8.89-21.24Z" style="fill:#BA68C8"></path><path d="M218,250.86l-46.63,0c-.17-.19,1.35-36.73,11.9-54.77,1.7-2.91,9.39-3.4,12.37,0C211.56,214.11,218,250.86,218,250.86Z" style="fill:#BA68C8"></path><polygon points="219.3 255.58 169.52 255.58 169.93 247.92 218.32 247.92 219.3 255.58" style="fill:#455a64"></polygon><path d="M184.92,205.83c2.59.12,6.59-5.88,7.67-9.92.08-.28-.68-2.85-1.47-6-.48-1.93-1-4.09-1.3-6.09l-10.07,5.51a36.48,36.48,0,0,1,2.28,7.47,4.06,4.06,0,0,1,.06.84.61.61,0,0,1,0,.14C182.14,199.38,182.41,205.71,184.92,205.83Z" style="fill:#c7c7c7"></path><path d="M182.1,197.63v.14a5.85,5.85,0,0,0,1.1-.18c6.09-1.59,6.07-10.83,5.94-13.41l-2.52,1.38-6.87,3.76a36.48,36.48,0,0,1,2.28,7.47A4.92,4.92,0,0,1,182.1,197.63Z" style="fill:#263238"></path><path d="M155,182.16c1.69,4,13.55,15.71,14.56,16.86s4.64,1.87,6.6.29,14.44-11.53,16.8-14.71,8.29-14.2,7.87-25-13.56-23-21.33-23.87-16.43,3.08-23.19,10c-8.79,9-4.85,29.26-3.83,32.08S154.5,180.91,155,182.16Z" style="fill:#c7c7c7"></path><path d="M165.56,179.61c.07-.09-.24-.08-.32,0-2,1.9-4.7,3.73-7.06,2.45-.07,0-.17.05-.1.12C160.43,184.21,163.94,181.74,165.56,179.61Z" style="fill:#263238"></path><path d="M165.56,179.61s-2.3-7.4-6.39-9-6.79,2.53-6.89,2.72a9.42,9.42,0,0,0,3.53,6.64A7.83,7.83,0,0,0,165.56,179.61Z" style="fill:#263238"></path><path d="M160.38,173.9a1.27,1.27,0,1,1-1.21-1.32A1.26,1.26,0,0,1,160.38,173.9Z" style="fill:#455a64"></path><path d="M162.18,175.86a.73.73,0,0,1-.77.7.74.74,0,1,1,.07-1.47A.73.73,0,0,1,162.18,175.86Z" style="fill:#455a64"></path><path d="M172.83,179.92c-.06-.09.25,0,.32,0C175,182,177.51,184.08,180,183c.07,0,.17.08.09.13C177.54,185,174.26,182.19,172.83,179.92Z" style="fill:#263238"></path><path d="M172.83,179.92s2.94-7.16,7.15-8.41,6.54,3.11,6.63,3.3a9.39,9.39,0,0,1-4.1,6.31A7.8,7.8,0,0,1,172.83,179.92Z" style="fill:#263238"></path><path d="M182.94,174.09a1.27,1.27,0,1,1-1.21-1.32A1.26,1.26,0,0,1,182.94,174.09Z" style="fill:#455a64"></path><path d="M184.74,176.05a.74.74,0,1,1-.71-.77A.74.74,0,0,1,184.74,176.05Z" style="fill:#455a64"></path><path d="M166.75,184.22c.39-.39,1.86,2.12,1.86,2.12S166.35,184.61,166.75,184.22Z" style="fill:#263238"></path><path d="M171.55,184.26c-.39-.39-1.89,2.09-1.89,2.09S171.94,184.66,171.55,184.26Z" style="fill:#263238"></path><path d="M174.75,188.23c-.91,2.23-4.06,3.37-6,1.55a7.65,7.65,0,0,1-.65-.74,9.63,9.63,0,0,0,1.72.73c1.81.57,3.5-.43,4.89-1.54Z" style="fill:#263238"></path><path d="M172.48,193c-.28.2-.57.49-.95.46a2.64,2.64,0,0,1-1.05-.42s-.07,0,0,.05a1.37,1.37,0,0,0,1.2.74,1.09,1.09,0,0,0,.94-.77A.06.06,0,0,0,172.48,193Z" style="fill:#263238"></path><path d="M153,167.15c6.82-2.8,11,4.11,12.11,9.93.14.84.29,1.68.41,2.53-.44-1.65-.84-3.29-1.43-4.89-1.61-4.83-5.51-9.36-11.09-7.57Z" style="opacity:0.1"></path><path d="M172.83,179.92c.43-8.37,6.25-18.49,15.26-11.43-9.2-6.19-14,3.42-15.26,11.43Z" style="opacity:0.1"></path><g style="opacity:0.1"><path d="M191.3,150.08c-.57,1-2.25,1.11-3.74.19s-2.25-2.48-1.68-3.5,2.25-1.11,3.74-.2S191.87,149.06,191.3,150.08Z"></path><path d="M198.28,158.62c-.3.43-1,.41-1.66-.05s-.89-1.19-.59-1.62,1.05-.42,1.67,0S198.58,158.18,198.28,158.62Z"></path><path d="M184.79,149.52c-.15.22-.52.21-.83,0s-.45-.6-.3-.82.53-.21.84,0S184.94,149.3,184.79,149.52Z"></path><path d="M189,143.79c-.16.56-1.05.76-2,.46s-1.59-1-1.43-1.58,1.05-.76,2-.45S189.15,143.23,189,143.79Z"></path></g><path d="M181.48,200.23c0-.9-.09-3.38,0-3.78s1,.2,2.52-.44,6.9-6.23,7.64-6.17,1.48,5.09,1.48,5.68-4.35,11.14-8.38,10.8C181.82,206.07,181.48,200.23,181.48,200.23Z" style="fill:#BA68C8"></path><path d="M200.37,206.53c5,13.2,7.18,44,1.91,47.6-7.88,5.36-25.9,18.17-33.4,20.71-2.8,1-12.76-20.75-9.74-21.7,3.63-1.15,26.81-15.41,27.16-16.35s2.43-18.35,4.78-29.3C193.22,197.56,198.28,201,200.37,206.53Z" style="fill:#c7c7c7"></path><path d="M160.18,252.71a54.84,54.84,0,0,1-8,3.27c-1.76.5-15.93,2.38-17.91,3.06-2.92,1-21,16.45-22.44,16.76-2.44.53-6.62,2.78-4.79,5.94s4.91-2.33,6.05-2.92c1.85-1,16.51-9.44,17.48-9.58s-1,3,.19,5.27a20.43,20.43,0,0,0,3.37,4.32c.38.41,2.62,4.92,3.32,5.4,2.16,1.47,7.91,2.59,13.15,1.53,1.32-.27,7.37-6.89,9.39-7.21s8.86-3.71,8.86-3.71Z" style="fill:#c7c7c7"></path><path d="M196.84,219.41c-7.76.58-9.14-8.95-8.66-12.95s2.48-9.57,7.08-9.92,7.71,5.32,8.53,11.13S202.19,219,196.84,219.41Z" style="fill:#37474f"></path><path d="M157.3,254.06l11.58,20.78a11,11,0,0,0,8.12-1c9.71-5.42,25.23-16.94,27.54-21.16,3.29-6,1.84-31.4-2.49-44.14s-9.34-10.65-12.23,2-4.47,25.25-4.87,25.64-16.39,8.2-24.15,13.18A8.87,8.87,0,0,0,157.3,254.06Z" style="fill:#BA68C8"></path><path d="M184.42,235.68c6.43,5.82,13.26,12.49,19.23,18.79-6.43-5.82-13.26-12.5-19.23-18.79Z" style="fill:#263238"></path><path d="M184.42,235.68c6.92,5.32,14.31,11.45,20.8,17.28-6.92-5.32-14.3-11.46-20.8-17.28Z" style="fill:#263238"></path><path d="M184.42,235.68c7.16,4.62,14.83,10,21.61,15.17-7.16-4.62-14.83-10-21.61-15.17Z" style="fill:#263238"></path><path d="M171.77,243.09c4.23-2.43,8.61-4.63,12.83-7.07.15-.09.1-.08.17-.3.92-4.19,1.45-8.47,2.27-12.69.58-3.08,1.18-6.17,2.05-9.19-.57,3.09-1,6.18-1.48,9.29l-1.44,9.3c-.22,1.17-.4,2.33-.73,3.5,0,.17-.23.59-.43.65-4.29,2.43-8.76,4.47-13.24,6.51Z" style="fill:#263238"></path><path d="M187.78,215.26a18.24,18.24,0,0,1,.07,4.61,7.49,7.49,0,0,1-.07-4.61Z" style="fill:#263238"></path><path d="M168.88,274.84c6.52,1.66,11.8-3.76,16.91-6.94,6.25-4.65,13.14-9,18.11-15,1.81-4.21,1.72-9.22,1.94-13.8a134.92,134.92,0,0,0-1.08-18.94,106.38,106.38,0,0,1,1.85,19c-.09,4.81,0,9.74-1.89,14.29-2.89,3.94-6.94,6.65-10.71,9.62a151.22,151.22,0,0,1-15.9,10.51,11.35,11.35,0,0,1-9.23,1.3Z" style="fill:#263238"></path><path d="M205.83,222.59a8.85,8.85,0,0,1,0,5.34,35.26,35.26,0,0,1,0-5.34Z" style="fill:#263238"></path></g></svg>
